<?xml version="1.0" standalone="no"?>
<!DOCTYPE svg PUBLIC "-//W3C//DTD SVG 20010904//EN"
 "http://www.w3.org/TR/2001/REC-SVG-20010904/DTD/svg10.dtd">
<svg version="1.0" xmlns="http://www.w3.org/2000/svg"
 width="1024.000000pt" height="1024.000000pt" viewBox="0 0 1024.000000 1024.000000"
 preserveAspectRatio="xMidYMid meet">

<g transform="translate(0.000000,1024.000000) scale(0.100000,-0.100000)"
fill="#000000" stroke="none">
<path d="M0 5120 l0 -5120 5120 0 5120 0 0 5120 0 5120 -5120 0 -5120 0 0
-5120z m4285 1746 c118 -31 278 -107 357 -170 68 -55 136 -137 172 -212 15
-30 28 -54 30 -54 2 0 15 19 29 43 75 126 209 248 342 312 191 92 458 100 642
20 154 -69 291 -209 372 -382 l23 -51 46 91 c92 185 268 312 526 380 69 18
109 21 266 21 157 -1 197 -4 262 -22 381 -105 625 -369 692 -752 15 -84 18
-240 23 -1397 l6 -1302 -380 2 -380 2 -6 1160 c-6 1274 -2 1208 -67 1341 -89
183 -295 270 -520 218 -126 -28 -224 -109 -294 -244 -67 -127 -65 -93 -68
-1160 -1 -531 -4 -1045 -6 -1143 l-3 -177 -67 0 c-37 0 -213 -12 -392 -26
-401 -32 -751 -30 -905 4 -370 81 -648 336 -749 685 -40 137 -46 272 -46 1021
0 606 -2 706 -16 760 -48 187 -161 298 -339 337 -86 18 -276 16 -354 -5 -197
-53 -381 -203 -465 -381 -64 -135 -61 -65 -61 -1280 l0 -1110 -382 -3 -383 -2
0 1682 0 1683 365 -3 c343 -2 365 -1 367 15 1 10 5 -74 8 -186 l5 -204 32 50
c47 72 176 199 266 261 148 103 340 176 522 201 39 5 151 8 250 7 156 -3 193
-7 280 -30z"/>
<path d="M5210 6115 c-95 -27 -190 -108 -247 -209 l-28 -51 -3 -810 c-2 -563
1 -830 8 -875 24 -140 109 -259 229 -319 99 -50 169 -62 356 -59 l165 3 0 972
c0 611 -4 991 -10 1025 -45 237 -256 382 -470 323z"/>
</g>
</svg>
